<?xml version="1.0" encoding="UTF-8" standalone="no"?>
<svg width="233px" height="73px" viewBox="0 0 233 73" version="1.1" xmlns="http://www.w3.org/2000/svg" xmlns:xlink="http://www.w3.org/1999/xlink">
    <!-- Generator: Sketch 3.8.1 (29687) - http://www.bohemiancoding.com/sketch -->
    <title>A-L-1</title>
    <desc>Created with Sketch.</desc>
    <defs></defs>
    <g id="Template" stroke="none" stroke-width="1" fill="none" fill-rule="evenodd">
        <g id="Measures-/-A---L-Logo" transform="translate(-37.000000, -215.000000)" fill="#FFFFFF">
            <g id="A-L-1" transform="translate(37.000000, 215.000000)">
                <path d="M122.462774,13.3640019 C120.40427,12.1595019 117.989849,11.4511315 115.339728,11.4511315 C107.556852,11.4511315 101.662965,17.4770111 101.662965,24.8743444 C101.662965,32.3244 107.556852,38.2590296 115.339728,38.2590296 C123.056417,38.2590296 128.896951,32.4535019 129.013113,25.1001037 L129.032699,25.1001037 L129.032699,0 L122.462774,0 L122.462774,13.3640019 Z M115.515997,31.8059648 C111.68129,31.8059648 108.571922,28.6919741 108.571922,24.851363 C108.571922,21.0154833 111.68129,17.9001407 115.515997,17.9001407 C119.341925,17.9001407 122.443188,20.9985852 122.462774,24.8277056 L122.462774,24.887187 C122.443188,28.7095481 119.341925,31.8059648 115.515997,31.8059648 L115.515997,31.8059648 Z" id="Fill-1"></path>
                <polygon id="Fill-2" points="100.631012 11.9916019 92.7177913 11.9916019 87.6208319 19.3112037 82.5252232 11.9916019 74.6201072 11.9916019 83.2802783 23.9845556 73.4071565 37.732213 81.5898464 37.732213 87.6208319 29.0391296 93.6741043 37.732213 101.840586 37.732213 91.9951536 23.9845556"></polygon>
                <path d="M146.462449,11.4510639 C138.668093,11.4510639 132.789064,17.4769435 132.789064,24.8742769 C132.789064,32.3243324 138.668093,38.258962 146.462449,38.258962 C154.261533,38.258962 160.152043,32.3243324 160.152043,24.8742769 C160.152043,17.4769435 154.261533,11.4510639 146.462449,11.4510639 M146.644797,31.8058972 C142.812116,31.8058972 139.695994,28.6919065 139.695994,24.8512954 C139.695994,21.0160917 142.812116,17.9000731 146.644797,17.9000731 C150.475452,17.9000731 153.590223,21.0160917 153.590223,24.8512954 C153.590223,28.6919065 150.475452,31.8058972 146.644797,31.8058972" id="Fill-3"></path>
                <path d="M57.2320264,11.4203093 C49.4464496,11.4203093 43.5539133,17.3515593 43.5539133,24.8131056 C43.5539133,32.2016519 49.4464496,38.2329389 57.2320264,38.2329389 C59.9030843,38.2329389 62.3323626,37.5178093 64.3888409,36.2957352 L64.3888409,37.7597907 L70.9299275,37.7597907 L70.9299275,24.5853185 L70.9116928,24.5853185 C70.7894522,17.2353 64.950067,11.4203093 57.2320264,11.4203093 M57.4130235,31.771763 C53.5756148,31.771763 50.4716496,28.6611519 50.4716496,24.8273 C50.4716496,20.985337 53.5756148,17.8760778 57.4130235,17.8760778 C61.2450293,17.8760778 64.3584496,20.985337 64.3584496,24.8273 C64.3584496,28.6611519 61.2450293,31.771763 57.4130235,31.771763" id="Fill-4"></path>
                <path d="M28.4867826,11.4510639 C28.4388319,11.4510639 28.4064145,11.4537676 28.3496841,11.4537676 C28.3091623,11.4537676 28.2564841,11.4510639 28.2112348,11.4510639 C25.1187507,11.4510639 22.1316232,12.654888 20.0481304,14.6698231 C17.9585594,12.654888 14.973458,11.4510639 11.8796232,11.4510639 C11.8249188,11.4510639 11.7877739,11.4537676 11.7391478,11.4537676 C11.689171,11.4537676 11.6520261,11.4510639 11.6020493,11.4510639 C8.06315072,11.4510639 4.66,13.0361102 2.5933913,15.6059806 C0.957663768,17.6046935 0,20.2712213 0,24.0942583 L0,37.7324157 L6.88396812,37.7324157 L6.88396812,23.823212 C6.88396812,21.496675 7.34726667,20.3090731 8.15635072,19.4127954 C9.1390029,18.3184713 10.4910783,17.8906102 11.7391478,17.8338324 C12.9811391,17.8906102 14.3460464,18.3184713 15.3232957,19.4127954 C16.1249507,20.3090731 16.5956783,21.496675 16.5956783,23.823212 L16.5956783,37.7324157 L23.4897768,37.7324157 L23.4897768,23.823212 C23.4897768,21.496675 23.9692841,20.3090731 24.7655362,19.4127954 C25.7434609,18.3184713 27.1029652,17.8906102 28.3496841,17.8338324 C29.6011304,17.8906102 30.9579333,18.3184713 31.9419362,19.4127954 C32.7415652,20.3090731 33.2082406,21.496675 33.2082406,23.823212 L33.2082406,37.7324157 L40.090858,37.7324157 L40.090858,24.0942583 C40.090858,20.2712213 39.1392725,17.6046935 37.5116493,15.6059806 C35.430858,13.0361102 32.0304087,11.4510639 28.4867826,11.4510639" id="Fill-5"></path>
                <path d="M192.282406,11.4510639 C192.234455,11.4510639 192.191907,11.4537676 192.14193,11.4537676 C192.101409,11.4537676 192.052107,11.4510639 192.014962,11.4510639 C188.919777,11.4510639 185.929272,12.654888 183.838351,14.6698231 C181.748104,12.654888 178.765704,11.4510639 175.665791,11.4510639 C175.633374,11.4510639 175.583397,11.4537676 175.528693,11.4537676 C175.489522,11.4537676 175.438194,11.4510639 175.392945,11.4510639 C171.857423,11.4510639 168.456974,13.0361102 166.382936,15.6059806 C164.745858,17.6046935 163.79022,20.2712213 163.79022,24.0942583 L163.79022,37.7324157 L170.676214,37.7324157 L170.676214,23.823212 C170.676214,21.496675 171.145591,20.3090731 171.941168,19.4127954 C172.933275,18.3184713 174.283325,17.8906102 175.528693,17.8338324 C176.78149,17.8906102 178.136267,18.3184713 179.118919,19.4127954 C179.927328,20.3090731 180.393328,21.496675 180.393328,23.823212 L180.393328,37.7324157 L187.290128,37.7324157 L187.290128,23.823212 C187.290128,21.496675 187.754777,20.3090731 188.559809,19.4127954 C189.543812,18.3184713 190.897238,17.8906102 192.14193,17.8338324 C193.390675,17.8906102 194.756933,18.3184713 195.734183,19.4127954 C196.534487,20.3090731 197.003864,21.496675 197.003864,23.823212 L197.003864,37.7324157 L203.891209,37.7324157 L203.891209,24.0942583 C203.891209,20.2712213 202.936246,17.6046935 201.308623,15.6059806 C199.226481,13.0361102 195.824681,11.4510639 192.282406,11.4510639" id="Fill-6"></path>
                <path d="M232.865603,24.6350667 C232.865603,17.4790389 227.611959,11.4511315 220.256588,11.4511315 C212.336614,11.4511315 207.28693,17.7352148 207.28693,24.8743444 C207.28693,32.9523352 213.282122,38.2590296 221.240591,38.2590296 C225.365029,38.2590296 229.609006,36.6266685 232.201046,33.6417796 L228.123209,29.7200574 C226.852177,31.0617704 224.441133,32.6907519 221.404029,32.6907519 C217.592284,32.6907519 214.60178,30.1898259 214.201965,26.5905204 L232.684606,26.5905204 C232.807522,26.0139556 232.865603,25.3326222 232.865603,24.6350667 L232.865603,24.6350667 Z M214.536945,21.5406778 C214.880704,19.2060296 217.278916,17.0200852 220.256588,17.0200852 C223.192388,17.0200852 225.30222,19.2594278 225.534545,21.5406778 L214.536945,21.5406778 Z" id="Fill-7"></path>
                <path d="M227.380986,54.0712352 C225.851965,53.1763093 224.057528,52.649763 222.088846,52.649763 C216.306394,52.649763 211.92667,57.1270963 211.92667,62.62305 C211.92667,68.1588833 216.306394,72.5679481 222.088846,72.5679481 C227.821997,72.5679481 232.1612,68.2548648 232.247646,62.7913556 L232.262504,62.7913556 L232.262504,44.1418833 L227.380986,44.1418833 L227.380986,54.0712352 Z M222.219191,67.7736056 C219.370513,67.7736056 217.060099,65.4599111 217.060099,62.6061519 C217.060099,59.7564481 219.370513,57.4414019 222.219191,57.4414019 C225.061791,57.4414019 227.366803,59.7436056 227.380986,62.5885778 L227.380986,62.632513 C227.366803,65.4734296 225.061791,67.7736056 222.219191,67.7736056 L222.219191,67.7736056 Z" id="Fill-8"></path>
                <path d="M134.125606,44.1422213 L129.244087,44.1422213 L129.244087,62.7910176 L129.258945,62.7910176 C129.345391,68.2545269 133.684594,72.5676102 139.417745,72.5676102 C145.200197,72.5676102 149.579922,68.1585454 149.579922,62.623388 C149.579922,57.1274343 145.200197,52.6501009 139.417745,52.6501009 C137.449064,52.6501009 135.654626,53.1766472 134.125606,54.0715731 L134.125606,44.1422213 Z M139.2874,67.7739435 C136.4448,67.7739435 134.139788,65.4730917 134.125606,62.6328509 L134.125606,62.5882398 C134.139788,59.7432676 136.4448,57.4417398 139.2874,57.4417398 C142.136078,57.4417398 144.446493,59.7567861 144.446493,62.6064898 C144.446493,65.4595731 142.136078,67.7739435 139.2874,67.7739435 L139.2874,67.7739435 Z" id="Fill-9"></path>
                <path d="M162.11127,52.6486139 C156.320038,52.6486139 151.95247,57.1259472 151.95247,62.6219009 C151.95247,68.1570583 156.320038,72.5667991 162.11127,72.5667991 C167.905878,72.5667991 172.282901,68.1570583 172.282901,62.6219009 C172.282901,57.1259472 167.905878,52.6486139 162.11127,52.6486139 M162.247017,67.7724565 C159.399014,67.7724565 157.083872,65.458762 157.083872,62.6050028 C157.083872,59.7552991 159.399014,57.4402528 162.247017,57.4402528 C165.092994,57.4402528 167.407461,59.7552991 167.407461,62.6050028 C167.407461,65.458762 165.092994,67.7724565 162.247017,67.7724565" id="Fill-10"></path>
                <path d="M185.074939,52.6498981 C179.290461,52.6498981 174.912087,57.0562593 174.912087,62.6002037 C174.912087,68.0900741 179.290461,72.571463 185.074939,72.571463 C187.059829,72.571463 188.864397,72.0401852 190.392742,71.1324167 L190.392742,72.2199815 L195.251974,72.2199815 L195.251974,62.4312222 L195.239142,62.4312222 C195.147968,56.9704167 190.809441,52.6498981 185.074939,52.6498981 M185.209336,67.771037 C182.357957,67.771037 180.05227,65.4600463 180.05227,62.6110185 C180.05227,59.7565833 182.357957,57.4462685 185.209336,57.4462685 C188.056664,57.4462685 190.36978,59.7565833 190.36978,62.6110185 C190.36978,65.4600463 188.056664,67.771037 185.209336,67.771037" id="Fill-11"></path>
                <path d="M96.4674029,52.6521287 C90.6822493,52.6521287 86.310629,57.1287861 86.310629,62.623388 C86.310629,68.1598972 90.6822493,72.5676102 96.4674029,72.5676102 C102.266739,72.5676102 106.63971,68.1598972 106.63971,62.623388 C106.63971,57.1287861 102.266739,52.6521287 96.4674029,52.6521287 M96.6018,67.7773231 C93.7564986,67.7773231 91.4406812,65.4588972 91.4406812,62.6064898 C91.4406812,59.7588139 93.7564986,57.4437676 96.6018,57.4437676 C99.4504783,57.4437676 101.76562,59.7588139 101.76562,62.6064898 C101.76562,65.4588972 99.4504783,67.7773231 96.6018,67.7773231" id="Fill-12"></path>
                <path d="M206.992472,52.8627472 C206.966133,52.8627472 206.930339,52.8701824 206.896571,52.8701824 C206.862128,52.8701824 206.827009,52.8627472 206.787838,52.8627472 C204.1546,52.8627472 201.613887,54.0456176 200.071359,55.958488 C198.848954,57.4590435 198.138472,59.4428861 198.138472,62.2925898 L198.138472,72.3584787 L203.272577,72.3584787 L203.272577,62.0850806 C203.272577,60.3520065 203.619038,59.4726269 204.220786,58.8068398 C204.956255,57.9889694 205.969299,57.6699324 206.896571,57.6314046 C207.359194,57.6496546 207.838701,57.7395528 208.304701,57.9267843 C209.254936,57.0007657 211.078414,55.1906361 211.92667,54.3355898 C210.513812,53.403488 208.77678,52.8627472 206.992472,52.8627472" id="Fill-13"></path>
                <path d="M118.025643,52.6521287 C117.995928,52.6521287 117.959458,52.6548324 117.927041,52.6548324 C117.890571,52.6548324 117.852075,52.6521287 117.816957,52.6521287 C115.180342,52.6521287 112.636928,53.8316194 111.093725,55.743138 C109.871994,57.2450454 109.161513,59.2336194 109.161513,62.0880546 L109.161513,72.1627306 L114.298319,72.1627306 L114.298319,61.8832491 C114.298319,60.1434157 114.642078,59.264712 115.247878,58.5935176 C115.981322,57.7756472 116.992339,57.4599898 117.927041,57.4180824 C118.849586,57.4599898 119.870733,57.7756472 120.601475,58.5935176 C121.193768,59.264712 121.546983,60.1434157 121.546983,61.8832491 L121.546983,72.1627306 L126.685139,72.1627306 L126.685139,62.0880546 C126.685139,59.2336194 125.976009,57.2450454 124.751577,55.743138 C123.205672,53.8316194 120.673064,52.6521287 118.025643,52.6521287" id="Fill-14"></path>
            </g>
        </g>
    </g>
</svg>