<?xml version="1.0" encoding="UTF-8" standalone="no"?>
<svg width="483px" height="150px" viewBox="0 0 483 150" version="1.1" xmlns="http://www.w3.org/2000/svg" xmlns:xlink="http://www.w3.org/1999/xlink">
    <!-- Generator: Sketch 3.8.1 (29687) - http://www.bohemiancoding.com/sketch -->
    <title>A-P-6</title>
    <desc>Created with Sketch.</desc>
    <defs>
        <rect id="path-1" x="0" y="0" width="489" height="150"></rect>
    </defs>
    <g id="Template" stroke="none" stroke-width="1" fill="none" fill-rule="evenodd">
        <g id="Measures-/-A---P-Pictures" transform="translate(-98.000000, -547.000000)">
            <g id="Placement_A-P-6" transform="translate(62.000000, 512.000000)">
                <g id="A-P-6" transform="translate(30.000000, 35.000000)">
                    <mask id="mask-2" fill="white">
                        <use xlink:href="#path-1"></use>
                    </mask>
                    <g id="Rectangle-184"></g>
                    <polygon id="Rectangle-233" fill="#FFFFFF" mask="url(#mask-2)" points="112.681992 -40.5109489 562.206942 -40.5109489 562.206942 167.518248 -3.27455357 167.518248"></polygon>
                    <path d="M143.644855,115.090239 C143.644855,111.819202 142.527691,109.063093 140.29333,106.821827 C138.058968,104.580561 135.311348,103.459945 132.050387,103.459945 C128.789427,103.459945 126.041807,104.580561 123.807445,106.821827 C121.573083,109.063093 120.455919,111.819202 120.455919,115.090239 C120.455919,118.361275 121.573083,121.117385 123.807445,123.35865 C126.041807,125.599916 128.789427,126.720532 132.050387,126.720532 C135.311348,126.720532 138.058968,125.599916 140.29333,123.35865 C142.527691,121.117385 143.644855,118.361275 143.644855,115.090239 L143.644855,115.090239 Z M132.050387,15.6875736 L198.718579,138.350826 L65.382196,138.350826 L132.050387,15.6875736 Z M132.050387,-16.6591802 L39.2946429,153.797309 L224.806132,153.797309 L132.050387,-16.6591802 Z M124.260354,91.8296516 L139.840421,91.8296516 L139.840421,53.1225809 L124.260354,53.1225809 L124.260354,91.8296516 Z" id="Achtung" fill="#E40F29" mask="url(#mask-2)"></path>
                </g>
            </g>
        </g>
    </g>
</svg>